<svg width="30" height="30" viewBox="0 0 30 30" fill="none" xmlns="http://www.w3.org/2000/svg">
<path d="M27.2569 12.5519H26.25V12.5H15V17.5H22.0644C21.0337 20.4106 18.2644 22.5 15 22.5C10.8581 22.5 7.5 19.1419 7.5 15C7.5 10.8581 10.8581 7.5 15 7.5C16.9119 7.5 18.6512 8.22125 19.9756 9.39937L23.5112 5.86375C21.2787 3.78312 18.2925 2.5 15 2.5C8.09687 2.5 2.5 8.09687 2.5 15C2.5 21.9031 8.09687 27.5 15 27.5C21.9031 27.5 27.5 21.9031 27.5 15C27.5 14.1619 27.4137 13.3437 27.2569 12.5519Z" fill="#FFC107"/>
<path d="M3.94116 9.18188L8.04804 12.1938C9.15929 9.4425 11.8505 7.5 14.9999 7.5C16.9118 7.5 18.6512 8.22125 19.9755 9.39937L23.5112 5.86375C21.2787 3.78312 18.2924 2.5 14.9999 2.5C10.1987 2.5 6.03491 5.21062 3.94116 9.18188Z" fill="#FF3D00"/>
<path d="M14.9998 27.4999C18.2286 27.4999 21.1623 26.2643 23.3805 24.2549L19.5117 20.9812C18.2145 21.9677 16.6295 22.5012 14.9998 22.4999C11.7486 22.4999 8.98795 20.4268 7.94795 17.5337L3.8717 20.6743C5.94045 24.7224 10.1417 27.4999 14.9998 27.4999Z" fill="#4CAF50"/>
<path d="M27.2569 12.5519H26.25V12.5H15V17.5H22.0644C21.5714 18.8853 20.6833 20.0957 19.51 20.9819L19.5119 20.9806L23.3806 24.2544C23.1069 24.5031 27.5 21.25 27.5 15C27.5 14.1619 27.4137 13.3437 27.2569 12.5519Z" fill="#1976D2"/>
</svg>
