<svg width="30" height="30" viewBox="0 0 30 30" fill="none" xmlns="http://www.w3.org/2000/svg">
<path d="M23.3298 28.4827C21.7144 30.0486 19.9508 29.8014 18.253 29.0597C16.4563 28.3014 14.808 28.2685 12.9125 29.0597C10.5389 30.0816 9.28621 29.7849 7.86866 28.4827C-0.175074 20.1918 1.01171 7.56573 10.1433 7.1042C12.3685 7.21959 13.918 8.32395 15.2201 8.42285C17.1651 8.02726 19.0277 6.88992 21.1046 7.03827C23.5935 7.23607 25.4726 8.22505 26.7088 10.0052C21.5661 13.0876 22.7858 19.8621 27.5 21.7577C26.5605 24.2301 25.3407 26.6861 23.3133 28.4992L23.3298 28.4827ZM15.0553 7.00531C14.808 3.32958 17.7915 0.296695 21.22 0C21.698 4.25263 17.3629 7.41738 15.0553 7.00531Z" fill="#545454"/>
</svg>
