<svg width="564" height="109" viewBox="0 0 564 109" fill="none" xmlns="http://www.w3.org/2000/svg">
<path d="M551.669 74.8607C545.857 75.0536 540.896 75.5358 536.786 76.3073C532.722 77.0306 529.392 77.995 526.793 79.2004C524.242 80.4059 522.375 81.8284 521.194 83.4679C520.06 85.1073 519.493 86.9397 519.493 88.9649C519.493 90.8936 519.8 92.5572 520.415 93.9556C521.029 95.3539 521.856 96.5112 522.895 97.4274C523.982 98.2953 525.234 98.9463 526.651 99.3802C528.116 99.766 529.675 99.9589 531.329 99.9589C533.549 99.9589 535.581 99.7419 537.424 99.3079C539.266 98.8257 540.991 98.1506 542.597 97.2827C544.251 96.4148 545.81 95.378 547.275 94.1726C548.786 92.9671 550.251 91.5928 551.669 90.0498V74.8607ZM510.918 44.9165C514.887 41.0107 519.163 38.0935 523.746 36.1647C528.328 34.2359 533.408 33.2715 538.983 33.2715C542.999 33.2715 546.566 33.9466 549.684 35.2968C552.802 36.6469 555.425 38.5275 557.551 40.9384C559.677 43.3494 561.283 46.2667 562.37 49.6902C563.457 53.1138 564 56.8749 564 60.9736V107.843H558.401C557.173 107.843 556.228 107.65 555.566 107.264C554.905 106.83 554.385 106.01 554.007 104.805L552.59 97.8613C550.7 99.6454 548.857 101.237 547.062 102.635C545.267 103.985 543.377 105.142 541.392 106.107C539.408 107.023 537.282 107.722 535.014 108.204C532.793 108.735 530.313 109 527.572 109C524.785 109 522.163 108.614 519.706 107.843C517.249 107.023 515.099 105.818 513.257 104.226C511.461 102.635 510.02 100.634 508.934 98.223C507.894 95.7638 507.374 92.8706 507.374 89.5435C507.374 86.6503 508.154 83.8777 509.713 81.2257C511.272 78.5254 513.8 76.1385 517.296 74.0651C520.793 71.9917 525.352 70.304 530.974 69.0021C536.597 67.6519 543.495 66.8804 551.669 66.6875V60.9736C551.669 55.2837 550.464 50.9921 548.054 48.099C545.644 45.1576 542.125 43.6869 537.494 43.6869C534.376 43.6869 531.754 44.0968 529.628 44.9165C527.549 45.688 525.73 46.5801 524.171 47.5927C522.659 48.5571 521.336 49.4491 520.202 50.2689C519.115 51.0404 518.029 51.4261 516.942 51.4261C516.091 51.4261 515.359 51.2091 514.745 50.7752C514.131 50.293 513.611 49.7143 513.186 49.0393L510.918 44.9165Z" fill="#0B6186"/>
<path d="M484.002 109C478.332 109 473.962 107.385 470.89 104.154C467.867 100.923 466.355 96.27 466.355 90.1944V45.3504H457.709C456.953 45.3504 456.315 45.1334 455.795 44.6995C455.275 44.2173 455.015 43.494 455.015 42.5296V37.3942L466.78 35.8753L469.686 13.2363C469.827 12.5131 470.134 11.9344 470.607 11.5005C471.127 11.0183 471.788 10.7772 472.591 10.7772H478.97V36.02H499.735V45.3504H478.97V89.3264C478.97 92.4125 479.702 94.7029 481.167 96.1977C482.631 97.6925 484.521 98.4399 486.836 98.4399C488.159 98.4399 489.293 98.2711 490.238 97.9336C491.23 97.5478 492.081 97.138 492.79 96.704C493.498 96.27 494.089 95.8843 494.561 95.5468C495.081 95.161 495.53 94.9681 495.908 94.9681C496.569 94.9681 497.16 95.378 497.68 96.1977L501.365 102.346C499.191 104.419 496.569 106.059 493.498 107.264C490.427 108.421 487.262 109 484.002 109Z" fill="#0B6186"/>
<path d="M442.455 46.6523C441.888 47.7132 441.014 48.2436 439.833 48.2436C439.124 48.2436 438.321 47.9784 437.423 47.4479C436.525 46.9175 435.415 46.3389 434.092 45.7121C432.816 45.037 431.281 44.4342 429.485 43.9038C427.69 43.3252 425.564 43.0359 423.107 43.0359C420.981 43.0359 419.067 43.3252 417.367 43.9038C415.666 44.4342 414.201 45.1816 412.973 46.146C411.791 47.1104 410.87 48.2436 410.209 49.5455C409.594 50.7992 409.287 52.1734 409.287 53.6682C409.287 55.5488 409.807 57.1159 410.846 58.3696C411.933 59.6233 413.351 60.7083 415.099 61.6244C416.847 62.5406 418.831 63.3603 421.052 64.0836C423.272 64.7587 425.54 65.5061 427.855 66.3258C430.218 67.0973 432.509 67.9653 434.73 68.9297C436.95 69.894 438.935 71.0995 440.683 72.5461C442.431 73.9927 443.825 75.7768 444.864 77.8985C445.951 79.9719 446.494 82.4793 446.494 85.4207C446.494 88.796 445.904 91.9303 444.723 94.8234C443.541 97.6684 441.793 100.152 439.478 102.273C437.163 104.347 434.328 105.986 430.974 107.192C427.619 108.397 423.745 109 419.351 109C414.343 109 409.807 108.18 405.744 106.541C401.681 104.853 398.232 102.707 395.397 100.103L398.373 95.1851C398.751 94.5582 399.2 94.076 399.72 93.7385C400.239 93.401 400.901 93.2322 401.704 93.2322C402.555 93.2322 403.452 93.5697 404.397 94.2448C405.342 94.9199 406.476 95.6673 407.799 96.487C409.169 97.3067 410.823 98.0541 412.76 98.7292C414.697 99.4043 417.107 99.7418 419.989 99.7418C422.446 99.7418 424.595 99.4284 426.438 98.8015C428.281 98.1265 429.816 97.2344 431.045 96.1254C432.273 95.0163 433.171 93.7385 433.738 92.2919C434.352 90.8453 434.659 89.3023 434.659 87.6629C434.659 85.6376 434.116 83.9741 433.029 82.6722C431.99 81.322 430.596 80.1889 428.848 79.2727C427.099 78.3083 425.091 77.4886 422.824 76.8135C420.603 76.0902 418.311 75.3428 415.949 74.5713C413.634 73.7998 411.343 72.9319 409.075 71.9675C406.854 70.9549 404.87 69.7012 403.122 68.2064C401.373 66.7116 399.956 64.8792 398.869 62.7094C397.83 60.4913 397.31 57.8151 397.31 54.6808C397.31 51.8841 397.877 49.208 399.011 46.6523C400.145 44.0485 401.799 41.7822 403.972 39.8534C406.145 37.8764 408.815 36.3093 411.98 35.152C415.146 33.9948 418.76 33.4161 422.824 33.4161C427.548 33.4161 431.777 34.1876 435.509 35.7307C439.289 37.2255 442.549 39.2989 445.29 41.9509L442.455 46.6523Z" fill="#0B6186"/>
<path d="M379.914 34.5734V107.843H367.299V34.5734H379.914ZM382.607 11.5727C382.607 12.8265 382.347 14.0078 381.827 15.1169C381.355 16.1777 380.693 17.1421 379.843 18.01C379.04 18.8298 378.071 19.4807 376.937 19.9629C375.85 20.4451 374.693 20.6862 373.464 20.6862C372.236 20.6862 371.079 20.4451 369.992 19.9629C368.952 19.4807 368.031 18.8298 367.228 18.01C366.425 17.1421 365.787 16.1777 365.314 15.1169C364.842 14.0078 364.606 12.8265 364.606 11.5727C364.606 10.319 364.842 9.13767 365.314 8.02863C365.787 6.87137 366.425 5.88287 367.228 5.06314C368.031 4.19519 368.952 3.52012 369.992 3.03793C371.079 2.55573 372.236 2.31464 373.464 2.31464C374.693 2.31464 375.85 2.55573 376.937 3.03793C378.071 3.52012 379.04 4.19519 379.843 5.06314C380.693 5.88287 381.355 6.87137 381.827 8.02863C382.347 9.13767 382.607 10.319 382.607 11.5727Z" fill="#0B6186"/>
<path d="M356.206 4.19526L314.818 107.843H302.487L261.098 4.19526H272.083C273.312 4.19526 274.304 4.50869 275.06 5.13554C275.816 5.76239 276.383 6.55801 276.761 7.52239L305.392 80.647C306.006 82.2865 306.597 84.0706 307.164 85.9993C307.778 87.9281 308.322 89.9533 308.794 92.075C309.266 89.9533 309.763 87.9281 310.282 85.9993C310.802 84.0706 311.369 82.2865 311.983 80.647L340.544 7.52239C340.828 6.70267 341.371 5.95527 342.174 5.28019C343.025 4.5569 344.04 4.19526 345.222 4.19526H356.206Z" fill="#0B6186"/>
<path d="M240.414 109C237.107 109 234.177 108.518 231.626 107.553C229.075 106.541 226.925 105.118 225.177 103.286C223.429 101.453 222.106 99.2354 221.208 96.6316C220.31 94.0277 219.861 91.0863 219.861 87.8074V47.5925H212.987C211.948 47.5925 211.05 47.255 210.294 46.5799C209.585 45.9048 209.231 44.8922 209.231 43.5421V35.7306L220.924 33.5607L224.893 14.2488C225.413 12.079 226.854 10.994 229.216 10.994H239.422V33.7053H258.273V47.5925H239.422V86.5055C239.422 88.5789 239.894 90.2184 240.839 91.4239C241.831 92.6294 243.225 93.2321 245.02 93.2321C245.965 93.2321 246.769 93.1357 247.43 92.9428C248.092 92.7017 248.659 92.4606 249.131 92.2195C249.603 91.9302 250.029 91.6891 250.407 91.4962C250.832 91.2551 251.257 91.1346 251.682 91.1346C252.249 91.1346 252.722 91.2792 253.1 91.5685C253.478 91.8096 253.856 92.2436 254.234 92.8705L260.116 102.418C257.423 104.588 254.375 106.227 250.974 107.336C247.572 108.445 244.052 109 240.414 109Z" fill="#0B6186"/>
<path d="M198.897 0V107.843H179.337V0H198.897Z" fill="#0B6186"/>
<path d="M102.054 2.89323L60.6652 107.843H41.3884L0 2.89323H17.1507C18.9933 2.89323 20.4816 3.35131 21.6155 4.26748C22.7967 5.13543 23.6708 6.26858 24.2377 7.66694L46.4911 68.134C47.3415 70.4003 48.1683 72.8836 48.9715 75.5839C49.822 78.2359 50.6016 81.0326 51.3103 83.974C51.9245 81.0326 52.5859 78.2359 53.2947 75.5839C54.0506 72.8836 54.8538 70.4003 55.7042 68.134L77.8159 7.66694C78.2883 6.46146 79.1152 5.37652 80.2963 4.41214C81.5248 3.39953 83.0367 2.89323 84.832 2.89323H102.054Z" fill="#0B6186"/>
<path d="M141.449 33.5119C138.007 32.5801 134.305 32.1141 130.344 32.1141C124.816 32.1141 119.784 33.0061 115.249 34.7902C110.76 36.5745 106.91 39.13 103.697 42.4572C100.484 45.7359 97.9799 49.7383 96.1845 54.4639C94.4364 59.1892 93.5623 64.5176 93.5623 70.4484C93.5623 76.3794 94.4364 81.7318 96.1845 86.5054C97.9799 91.231 100.484 95.2574 103.697 98.5843C106.419 101.403 109.598 103.668 113.235 105.379L120.123 76.2163C120.399 75.0456 120.103 74.4913 119.162 74.2598L108.406 71.6138C107.223 71.3227 106.971 69.8019 107.954 68.7705L141.449 33.5119Z" fill="#0B6186"/>
<path d="M120.61 107.893L150.64 78.1668C151.651 77.142 151.46 75.3232 150.277 75.0321L140.865 72.7169C139.521 72.3864 138.56 70.4296 138.944 68.8036L146.825 35.438C150.666 37.1741 154.007 39.5135 156.85 42.4572C160.063 45.7359 162.543 49.7383 164.291 54.4639C166.039 59.1892 166.913 64.5176 166.913 70.4484C166.913 76.3794 166.039 81.7318 164.291 86.5054C162.543 91.231 160.063 95.2574 156.85 98.5843C153.637 101.912 149.786 104.467 145.298 106.251C140.809 108.035 135.825 108.927 130.344 108.927C126.908 108.927 123.663 108.583 120.61 107.893Z" fill="#0B6186"/>
</svg>
