<svg width="19" height="13" viewBox="0 0 19 13" fill="none" xmlns="http://www.w3.org/2000/svg">
<path d="M9.49998 3.99023C8.83694 3.99023 8.20105 4.25363 7.73221 4.72247C7.26337 5.19131 6.99998 5.82719 6.99998 6.49023C6.99998 7.15328 7.26337 7.78916 7.73221 8.258C8.20105 8.72684 8.83694 8.99023 9.49998 8.99023C10.163 8.99023 10.7989 8.72684 11.2677 8.258C11.7366 7.78916 12 7.15328 12 6.49023C12 5.82719 11.7366 5.19131 11.2677 4.72247C10.7989 4.25363 10.163 3.99023 9.49998 3.99023ZM9.49998 10.6569C8.39491 10.6569 7.3351 10.2179 6.5537 9.43651C5.7723 8.65511 5.33331 7.5953 5.33331 6.49023C5.33331 5.38517 5.7723 4.32536 6.5537 3.54396C7.3351 2.76255 8.39491 2.32357 9.49998 2.32357C10.605 2.32357 11.6649 2.76255 12.4463 3.54396C13.2277 4.32536 13.6666 5.38517 13.6666 6.49023C13.6666 7.5953 13.2277 8.65511 12.4463 9.43651C11.6649 10.2179 10.605 10.6569 9.49998 10.6569ZM9.49998 0.240234C5.33331 0.240234 1.77498 2.8319 0.333313 6.49023C1.77498 10.1486 5.33331 12.7402 9.49998 12.7402C13.6666 12.7402 17.225 10.1486 18.6666 6.49023C17.225 2.8319 13.6666 0.240234 9.49998 0.240234Z" fill="#0B6186"/>
</svg>
