<svg width="15" height="17" viewBox="0 0 15 17" fill="none" xmlns="http://www.w3.org/2000/svg">
<path d="M11.6667 5.99032V4.32365C11.6667 1.99032 9.83337 0.156982 7.50004 0.156982C5.16671 0.156982 3.33337 1.99032 3.33337 4.32365V5.99032C1.91671 5.99032 0.833374 7.07365 0.833374 8.49032V14.3236C0.833374 15.7403 1.91671 16.8236 3.33337 16.8236H11.6667C13.0834 16.8236 14.1667 15.7403 14.1667 14.3236V8.49032C14.1667 7.07365 13.0834 5.99032 11.6667 5.99032ZM5.00004 4.32365C5.00004 2.90698 6.08337 1.82365 7.50004 1.82365C8.91671 1.82365 10 2.90698 10 4.32365V5.99032H5.00004V4.32365ZM8.41671 11.407L8.33337 11.4903V12.657C8.33337 13.157 8.00004 13.4903 7.50004 13.4903C7.00004 13.4903 6.66671 13.157 6.66671 12.657V11.4903C6.16671 10.9903 6.08337 10.2403 6.58337 9.74032C7.08337 9.24032 7.83337 9.15698 8.33337 9.65698C8.83337 10.0736 8.91671 10.907 8.41671 11.407Z" fill="#0B6186"/>
</svg>
