<svg width="586" height="114" viewBox="0 0 586 114" fill="none" xmlns="http://www.w3.org/2000/svg">
<path d="M573.188 78.1079C567.149 78.3078 561.995 78.8077 557.724 79.6076C553.502 80.3574 550.042 81.3572 547.342 82.6069C544.691 83.8566 542.752 85.3313 541.524 87.0309C540.346 88.7305 539.757 90.6301 539.757 92.7296C539.757 94.7292 540.076 96.4538 540.714 97.9035C541.353 99.3531 542.212 100.553 543.292 101.503C544.421 102.402 545.722 103.077 547.194 103.527C548.716 103.927 550.336 104.127 552.054 104.127C554.361 104.127 556.472 103.902 558.387 103.452C560.301 102.952 562.093 102.253 563.762 101.353C565.48 100.453 567.1 99.3781 568.622 98.1284C570.193 96.8787 571.715 95.454 573.188 93.8544V78.1079ZM530.847 47.0648C534.971 43.0157 539.414 39.9914 544.175 37.9918C548.937 35.9923 554.214 34.9925 560.007 34.9925C564.179 34.9925 567.886 35.6924 571.126 37.092C574.366 38.4917 577.09 40.4413 579.299 42.9407C581.508 45.4402 583.177 48.4645 584.306 52.0137C585.435 55.5629 586 59.4621 586 63.7111V112.3H580.183C578.906 112.3 577.925 112.1 577.237 111.7C576.55 111.251 576.01 110.401 575.617 109.151L574.145 101.953C572.181 103.802 570.267 105.452 568.401 106.901C566.536 108.301 564.572 109.501 562.51 110.501C560.449 111.45 558.24 112.175 555.883 112.675C553.576 113.225 550.999 113.5 548.152 113.5C545.255 113.5 542.531 113.1 539.978 112.3C537.425 111.45 535.192 110.201 533.277 108.551C531.412 106.901 529.915 104.827 528.786 102.327C527.706 99.7781 527.166 96.7787 527.166 93.3295C527.166 90.3302 527.976 87.4558 529.596 84.7064C531.216 81.907 533.842 79.4326 537.474 77.2831C541.107 75.1336 545.844 73.384 551.686 72.0343C557.528 70.6346 564.695 69.8347 573.188 69.6348V63.7111C573.188 57.8124 571.936 53.3634 569.432 50.3641C566.928 47.3148 563.271 45.7901 558.46 45.7901C555.221 45.7901 552.496 46.215 550.287 47.0648C548.127 47.8646 546.237 48.7894 544.617 49.8392C543.046 50.839 541.672 51.7638 540.494 52.6136C539.364 53.4134 538.235 53.8133 537.106 53.8133C536.223 53.8133 535.462 53.5884 534.824 53.1385C534.185 52.6386 533.645 52.0387 533.204 51.3389L530.847 47.0648Z" fill="white"/>
<path d="M502.881 113.5C496.99 113.5 492.449 111.825 489.259 108.476C486.117 105.127 484.546 100.303 484.546 94.0043V47.5147H475.562C474.777 47.5147 474.114 47.2897 473.574 46.8398C473.034 46.3399 472.764 45.5901 472.764 44.5903V39.2665L484.988 37.6918L488.007 14.2221C488.154 13.4723 488.473 12.8724 488.964 12.4225C489.504 11.9226 490.191 11.6727 491.026 11.6727H497.653V37.8418H519.228V47.5147H497.653V93.1045C497.653 96.3038 498.414 98.6782 499.936 100.228C501.457 101.778 503.421 102.552 505.826 102.552C507.201 102.552 508.379 102.377 509.361 102.027C510.392 101.628 511.275 101.203 512.012 100.753C512.748 100.303 513.362 99.903 513.853 99.5531C514.393 99.1531 514.859 98.9532 515.252 98.9532C515.939 98.9532 516.553 99.3781 517.093 100.228L520.922 106.601C518.663 108.751 515.939 110.451 512.748 111.7C509.557 112.9 506.268 113.5 502.881 113.5Z" fill="white"/>
<path d="M459.714 48.8643C459.124 49.9641 458.216 50.514 456.989 50.514C456.253 50.514 455.418 50.239 454.485 49.6892C453.553 49.1393 452.399 48.5394 451.025 47.8896C449.699 47.1897 448.104 46.5649 446.238 46.015C444.373 45.4151 442.164 45.1152 439.611 45.1152C437.402 45.1152 435.414 45.4151 433.647 46.015C431.88 46.5649 430.358 47.3397 429.081 48.3395C427.854 49.3392 426.897 50.514 426.21 51.8637C425.571 53.1634 425.252 54.5881 425.252 56.1377C425.252 58.0873 425.792 59.7119 426.872 61.0116C428.001 62.3113 429.474 63.4361 431.29 64.3859C433.107 65.3357 435.169 66.1855 437.476 66.9353C439.783 67.6351 442.139 68.41 444.545 69.2598C446.999 70.0596 449.38 70.9594 451.687 71.9592C453.995 72.959 456.056 74.2087 457.873 75.7084C459.689 77.208 461.137 79.0576 462.217 81.2571C463.346 83.4066 463.911 86.0061 463.911 89.0554C463.911 92.5546 463.297 95.8039 462.07 98.8032C460.843 101.753 459.026 104.327 456.621 106.526C454.216 108.676 451.27 110.376 447.785 111.625C444.299 112.875 440.274 113.5 435.709 113.5C430.505 113.5 425.792 112.65 421.571 110.95C417.349 109.201 413.765 106.976 410.82 104.277L413.913 99.1781C414.305 98.5283 414.772 98.0284 415.312 97.6784C415.852 97.3285 416.539 97.1536 417.373 97.1536C418.257 97.1536 419.19 97.5035 420.172 98.2033C421.153 98.9032 422.332 99.678 423.706 100.528C425.13 101.378 426.848 102.152 428.861 102.852C430.873 103.552 433.377 103.902 436.371 103.902C438.924 103.902 441.158 103.577 443.072 102.927C444.987 102.227 446.582 101.303 447.858 100.153C449.135 99.0032 450.067 97.6784 450.656 96.1788C451.295 94.6791 451.614 93.0795 451.614 91.3798C451.614 89.2803 451.049 87.5557 449.92 86.206C448.84 84.8063 447.392 83.6316 445.576 82.6818C443.759 81.682 441.673 80.8322 439.317 80.1324C437.009 79.3825 434.629 78.6077 432.174 77.8079C429.769 77.0081 427.388 76.1083 425.031 75.1085C422.724 74.0587 420.662 72.759 418.846 71.2094C417.03 69.6597 415.557 67.7601 414.428 65.5106C413.348 63.2111 412.808 60.4368 412.808 57.1875C412.808 54.2881 413.397 51.5138 414.575 48.8643C415.753 46.1649 417.472 43.8155 419.73 41.8159C421.988 39.7664 424.762 38.1417 428.051 36.942C431.34 35.7423 435.095 35.1424 439.317 35.1424C444.226 35.1424 448.619 35.9422 452.497 37.5419C456.425 39.0915 459.812 41.241 462.659 43.9904L459.714 48.8643Z" fill="white"/>
<path d="M394.733 36.3421V112.3H381.626V36.3421H394.733ZM397.531 12.4974C397.531 13.7971 397.261 15.0219 396.721 16.1716C396.23 17.2714 395.543 18.2711 394.659 19.1709C393.825 20.0208 392.819 20.6956 391.64 21.1955C390.511 21.6954 389.309 21.9453 388.032 21.9453C386.756 21.9453 385.553 21.6954 384.424 21.1955C383.344 20.6956 382.387 20.0208 381.552 19.1709C380.718 18.2711 380.055 17.2714 379.564 16.1716C379.073 15.0219 378.828 13.7971 378.828 12.4974C378.828 11.1977 379.073 9.973 379.564 8.82325C380.055 7.62353 380.718 6.59875 381.552 5.74894C382.387 4.84915 383.344 4.1493 384.424 3.64941C385.553 3.14952 386.756 2.89958 388.032 2.89958C389.309 2.89958 390.511 3.14952 391.64 3.64941C392.819 4.1493 393.825 4.84915 394.659 5.74894C395.543 6.59875 396.23 7.62353 396.721 8.82325C397.261 9.973 397.531 11.1977 397.531 12.4974Z" fill="white"/>
<path d="M370.101 4.84921L327.098 112.3H314.286L271.283 4.84921H282.696C283.973 4.84921 285.004 5.17414 285.789 5.824C286.574 6.47385 287.163 7.29867 287.556 8.29844L317.305 84.1065C317.943 85.8061 318.557 87.6557 319.146 89.6553C319.784 91.6548 320.348 93.7544 320.839 95.9539C321.33 93.7544 321.846 91.6548 322.385 89.6553C322.925 87.6557 323.515 85.8061 324.153 84.1065L353.828 8.29844C354.122 7.44864 354.687 6.67381 355.521 5.97396C356.405 5.22413 357.46 4.84921 358.688 4.84921H370.101Z" fill="white"/>
<path d="M249.792 113.5C246.355 113.5 243.312 113 240.661 112C238.01 110.95 235.777 109.476 233.96 107.576C232.144 105.677 230.769 103.377 229.837 100.678C228.904 97.9783 228.438 94.929 228.438 91.5297V49.839H221.295C220.215 49.839 219.282 49.4891 218.497 48.7892C217.761 48.0894 217.392 47.0396 217.392 45.64V37.5418L229.542 35.2923L233.666 15.2717C234.206 13.0222 235.703 11.8975 238.157 11.8975H248.761V35.4422H268.348V49.839H248.761V90.18C248.761 92.3295 249.252 94.0292 250.234 95.2789C251.264 96.5286 252.713 97.1535 254.578 97.1535C255.56 97.1535 256.394 97.0535 257.082 96.8535C257.769 96.6036 258.358 96.3537 258.849 96.1037C259.34 95.8038 259.782 95.5538 260.174 95.3539C260.616 95.1039 261.058 94.979 261.5 94.979C262.089 94.979 262.58 95.1289 262.972 95.4288C263.365 95.6788 263.758 96.1287 264.151 96.7785L270.262 106.676C267.464 108.926 264.298 110.625 260.763 111.775C257.229 112.925 253.572 113.5 249.792 113.5Z" fill="white"/>
<path d="M206.655 0.5V112.3H186.332V0.5H206.655Z" fill="white"/>
<path d="M106.034 3.4994L63.0316 112.3H43.0028L0 3.4994H17.8197C19.7342 3.4994 21.2805 3.97429 22.4587 4.92409C23.6859 5.82388 24.5941 6.99862 25.1832 8.44829L48.3046 71.1343C49.1882 73.4838 50.0473 76.0582 50.8818 78.8576C51.7654 81.607 52.5754 84.5063 53.3117 87.5556C53.9499 84.5063 54.6372 81.607 55.3735 78.8576C56.159 76.0582 56.9935 73.4838 57.8771 71.1343L80.8512 8.44829C81.3421 7.19857 82.2012 6.07383 83.4285 5.07405C84.7048 4.02428 86.2757 3.4994 88.1411 3.4994H106.034Z" fill="white"/>
<path d="M146.967 35.2417C143.39 34.2757 139.544 33.7926 135.429 33.7926C129.685 33.7926 124.457 34.7174 119.744 36.5669C115.081 38.4167 111.08 41.066 107.742 44.5153C104.404 47.9143 101.802 52.0636 99.9364 56.9626C98.1201 61.8613 97.2119 67.3852 97.2119 73.5336C97.2119 79.6823 98.1201 85.2312 99.9364 90.1799C101.802 95.0789 104.404 99.2531 107.742 102.702C110.57 105.624 113.873 107.972 117.652 109.746L124.808 79.5133C125.096 78.2996 124.788 77.7249 123.81 77.485L112.635 74.7419C111.406 74.4401 111.143 72.8634 112.165 71.7942L146.967 35.2417Z" fill="white"/>
<path d="M125.314 112.353L156.516 81.5353C157.566 80.4729 157.368 78.5874 156.139 78.2856L146.36 75.8854C144.963 75.5428 143.965 73.5142 144.364 71.8286L152.552 37.2385C156.543 39.0382 160.015 41.4636 162.968 44.5153C166.306 47.9143 168.883 52.0636 170.7 56.9626C172.516 61.8613 173.424 67.3852 173.424 73.5336C173.424 79.6823 172.516 85.2312 170.7 90.1799C168.883 95.0789 166.306 99.2531 162.968 102.702C159.63 106.151 155.629 108.801 150.965 110.651C146.302 112.5 141.123 113.425 135.429 113.425C131.858 113.425 128.487 113.068 125.314 112.353Z" fill="white"/>
</svg>
