<svg width="20" height="21" viewBox="0 0 20 21" fill="none" xmlns="http://www.w3.org/2000/svg">
<path d="M5.10503 18.226C6.60586 18.226 7.82253 17.0093 7.82253 15.5085C7.82253 14.0076 6.60586 12.791 5.10503 12.791C3.60419 12.791 2.38753 14.0076 2.38753 15.5085C2.38753 17.0093 3.60419 18.226 5.10503 18.226Z" stroke="#0B6186" stroke-width="1.5" stroke-linecap="round" stroke-linejoin="round"/>
<path d="M5.10501 16.744C5.78735 16.744 6.34051 16.1908 6.34051 15.5085C6.34051 14.8261 5.78735 14.273 5.10501 14.273C4.42266 14.273 3.86951 14.8261 3.86951 15.5085C3.86951 16.1908 4.42266 16.744 5.10501 16.744Z" stroke="#0B6186" stroke-width="1.5" stroke-linecap="round" stroke-linejoin="round"/>
<path d="M10.293 8.83796C10.6861 8.83796 11.0632 8.99415 11.3412 9.27217C11.6193 9.55019 11.7755 9.92727 11.7755 10.3205M10.4165 7.97346C11.0062 7.97346 11.5717 8.20772 11.9887 8.62471C12.4057 9.04169 12.64 9.60725 12.64 10.197M0.812958 14.2735L5.42196 9.66396C5.60519 9.47991 5.82297 9.33388 6.06279 9.23423C6.30261 9.13458 6.55976 9.08328 6.81946 9.08328C7.07916 9.08328 7.3363 9.13458 7.57613 9.23423C7.81595 9.33388 8.03373 9.47991 8.21696 9.66396L11.012 12.459C11.1961 12.6422 11.3422 12.86 11.4419 13.0999C11.5416 13.3397 11.5929 13.5969 11.5929 13.8567C11.5929 14.1165 11.5416 14.3737 11.4419 14.6135C11.3422 14.8534 11.1961 15.0712 11.012 15.2545L6.34096 19.9265" stroke="#0B6186" stroke-width="1.5" stroke-linecap="round" stroke-linejoin="round"/>
<path d="M3.37542 11.695V6.36746C3.37397 5.71819 3.50079 5.07503 3.74858 4.4749C3.99638 3.87478 4.36027 3.32951 4.81938 2.87041C5.27848 2.41131 5.82375 2.04741 6.42387 1.79961C7.024 1.55182 7.66716 1.42501 8.31642 1.42646H14.2464C14.8957 1.42507 15.5388 1.55193 16.1388 1.79976C16.7389 2.04758 17.2841 2.41149 17.7431 2.87059C18.2022 3.32968 18.5661 3.87493 18.8138 4.47502C19.0616 5.07511 19.1884 5.71823 19.1869 6.36746V12.297C19.1884 12.9462 19.0616 13.5894 18.8138 14.1895C18.566 14.7896 18.2021 15.3349 17.743 15.794C17.2839 16.2531 16.7386 16.617 16.1385 16.8648C15.5384 17.1126 14.8952 17.2394 14.2459 17.238H8.95342" stroke="#0B6186" stroke-width="1.5" stroke-linecap="round" stroke-linejoin="round"/>
</svg>
