<svg width="24" height="25" viewBox="0 0 24 25" fill="none" xmlns="http://www.w3.org/2000/svg">
<path d="M15.6428 14.8193C15.4723 14.8193 15.3088 14.887 15.1882 15.0076C15.0677 15.1282 14.9999 15.2917 14.9999 15.4622C14.9999 15.6327 15.0677 15.7962 15.1882 15.9167C15.3088 16.0373 15.4723 16.105 15.6428 16.105H18.6428C18.8133 16.105 18.9768 16.0373 19.0974 15.9167C19.2179 15.7962 19.2857 15.6327 19.2857 15.4622C19.2857 15.2917 19.2179 15.1282 19.0974 15.0076C18.9768 14.887 18.8133 14.8193 18.6428 14.8193H15.6428ZM1.71765 8.17645C1.71765 7.32397 2.0563 6.5064 2.65909 5.90361C3.26189 5.30081 4.07946 4.96217 4.93194 4.96217H19.0714C19.9238 4.96217 20.7414 5.30081 21.3442 5.90361C21.947 6.5064 22.2857 7.32397 22.2857 8.17645V17.1765C22.2857 18.0289 21.947 18.8465 21.3442 19.4493C20.7414 20.0521 19.9238 20.3907 19.0714 20.3907H4.93279C4.08031 20.3907 3.26275 20.0521 2.65995 19.4493C2.05716 18.8465 1.71851 18.0289 1.71851 17.1765V8.17645H1.71765ZM4.93194 6.24788C4.42045 6.24788 3.92991 6.45107 3.56823 6.81275C3.20655 7.17442 3.00337 7.66496 3.00337 8.17645V8.81931H20.9999V8.17645C20.9999 7.66496 20.7967 7.17442 20.4351 6.81275C20.0734 6.45107 19.5829 6.24788 19.0714 6.24788H4.93194ZM3.00337 17.1765C3.00337 17.6879 3.20655 18.1785 3.56823 18.5402C3.92991 18.9018 4.42045 19.105 4.93194 19.105H19.0714C19.5829 19.105 20.0734 18.9018 20.4351 18.5402C20.7967 18.1785 20.9999 17.6879 20.9999 17.1765V10.105H3.00422V17.1765H3.00337Z" fill="#0B6186" stroke="#0B6186" stroke-width="0.5"/>
</svg>
