<svg width="24" height="25" viewBox="0 0 24 25" fill="none" xmlns="http://www.w3.org/2000/svg">
<g clip-path="url(#clip0_310_537)">
<path d="M11.9999 2.00981C9.89027 2.00981 7.82798 2.6354 6.07386 3.80747C4.31973 4.97954 2.95256 6.64544 2.14522 8.59452C1.33789 10.5436 1.12665 12.6883 1.53823 14.7574C1.9498 16.8266 2.96571 18.7272 4.45747 20.219C5.94923 21.7107 7.84985 22.7266 9.91898 23.1382C11.9881 23.5498 14.1328 23.3385 16.0819 22.5312C18.031 21.7239 19.6969 20.3567 20.8689 18.6026C22.041 16.8484 22.6666 14.7861 22.6666 12.6765C22.6666 9.8475 21.5428 7.13439 19.5424 5.13401C17.542 3.13362 14.8289 2.00981 11.9999 2.00981ZM11.9999 22.0098C10.154 22.0098 8.34948 21.4624 6.81462 20.4369C5.27976 19.4113 4.08348 17.9536 3.37706 16.2482C2.67065 14.5427 2.48581 12.6661 2.84594 10.8556C3.20607 9.04515 4.09499 7.3821 5.40028 6.07681C6.70557 4.77152 8.36861 3.88261 10.1791 3.52248C11.9896 3.16235 13.8662 3.34718 15.5717 4.0536C17.2771 4.76002 18.7348 5.9563 19.7603 7.49116C20.7859 9.02601 21.3333 10.8305 21.3333 12.6765C21.3333 15.1518 20.3499 17.5258 18.5996 19.2761C16.8493 21.0265 14.4753 22.0098 11.9999 22.0098Z" fill="#0B6186"/>
<path d="M12.1933 6.62314C11.4709 6.6112 10.7547 6.75852 10.0956 7.05464C9.43653 7.35076 8.85078 7.7884 8.37996 8.33647C8.31455 8.39709 8.26197 8.47021 8.22532 8.55152C8.18868 8.63282 8.16872 8.72065 8.16663 8.80981C8.16658 8.89206 8.18308 8.97348 8.21515 9.04923C8.24722 9.12498 8.29419 9.1935 8.35328 9.25072C8.41237 9.30795 8.48236 9.3527 8.5591 9.38232C8.63584 9.41194 8.71775 9.42582 8.79996 9.42314C8.97608 9.41877 9.14448 9.34999 9.27329 9.22981C9.6296 8.81226 10.0721 8.47686 10.5705 8.24669C11.0688 8.01652 11.6111 7.89704 12.16 7.89647C13.7333 7.89647 14.7133 8.90981 14.7133 10.1698V10.2031C14.7133 11.6765 13.54 12.4965 11.6866 12.6365C11.6116 12.6394 11.538 12.6581 11.4707 12.6914C11.4034 12.7247 11.3438 12.7718 11.296 12.8297C11.2482 12.8876 11.2131 12.955 11.1931 13.0274C11.1731 13.0998 11.1686 13.1756 11.18 13.2498C11.18 13.2498 11.18 14.7965 11.18 15.0831C11.1965 15.2482 11.274 15.4011 11.3973 15.512C11.5206 15.623 11.6808 15.684 11.8466 15.6831H11.92C12.085 15.6666 12.2379 15.5891 12.3488 15.4658C12.4598 15.3425 12.5208 15.1823 12.52 15.0165V13.6431C14.52 13.3631 16.14 12.3098 16.14 10.1231V10.0898C16.12 8.08981 14.56 6.62314 12.1933 6.62314Z" fill="#0B6186"/>
<path d="M11.8533 18.9765C12.3136 18.9765 12.6867 18.6034 12.6867 18.1431C12.6867 17.6829 12.3136 17.3098 11.8533 17.3098C11.3931 17.3098 11.02 17.6829 11.02 18.1431C11.02 18.6034 11.3931 18.9765 11.8533 18.9765Z" fill="#0B6186"/>
</g>
<defs>
<clipPath id="clip0_310_537">
<rect width="24" height="24" fill="white" transform="translate(0 0.676453)"/>
</clipPath>
</defs>
</svg>
