<svg width="24" height="25" viewBox="0 0 24 25" fill="none" xmlns="http://www.w3.org/2000/svg">
<path d="M4.49997 23.1764H13.5C13.8977 23.176 14.279 23.0179 14.5602 22.7366C14.8414 22.4554 14.9996 22.0741 15 21.6764V19.4264H13.5V21.6764H4.49997V3.67642H13.5V5.92642H15V3.67642C14.9996 3.27872 14.8414 2.89742 14.5602 2.6162C14.279 2.33498 13.8977 2.17682 13.5 2.17642H4.49997C4.10227 2.17682 3.72097 2.33498 3.43975 2.6162C3.15853 2.89742 3.00037 3.27872 2.99997 3.67642V21.6764C3.00037 22.0741 3.15853 22.4554 3.43975 22.7366C3.72097 23.0179 4.10227 23.176 4.49997 23.1764Z" fill="#0B6186"/>
<path d="M15.4395 16.1159L18.129 13.4264H7.49997V11.9264H18.129L15.4395 9.23692L16.5 8.17642L21 12.6764L16.5 17.1764L15.4395 16.1159Z" fill="#0B6186"/>
</svg>
