<svg width="214" height="69" viewBox="0 0 214 69" fill="none" xmlns="http://www.w3.org/2000/svg">
<path d="M178.72 39.6949C177.175 39.7456 175.855 39.8725 174.762 40.0754C173.682 40.2657 172.796 40.5195 172.105 40.8366C171.426 41.1537 170.93 41.528 170.615 41.9593C170.314 42.3906 170.163 42.8727 170.163 43.4055C170.163 43.9129 170.245 44.3506 170.408 44.7185C170.572 45.0864 170.791 45.3908 171.068 45.6319C171.357 45.8602 171.69 46.0315 172.067 46.1456C172.456 46.2471 172.871 46.2979 173.311 46.2979C173.901 46.2979 174.442 46.2408 174.932 46.1266C175.422 45.9997 175.881 45.8221 176.308 45.5938C176.748 45.3655 177.162 45.0927 177.552 44.7756C177.954 44.4584 178.343 44.0969 178.72 43.6909V39.6949ZM167.882 31.8169C168.938 30.7894 170.075 30.0219 171.294 29.5145C172.513 29.007 173.864 28.7533 175.346 28.7533C176.415 28.7533 177.363 28.9309 178.193 29.2861C179.022 29.6413 179.719 30.1361 180.285 30.7704C180.85 31.4047 181.277 32.1721 181.566 33.0728C181.855 33.9735 182 34.963 182 36.0413V48.372H180.511C180.184 48.372 179.933 48.3213 179.757 48.2198C179.581 48.1056 179.443 47.8899 179.342 47.5728L178.965 45.746C178.463 46.2154 177.973 46.634 177.495 47.0019C177.018 47.3571 176.515 47.6616 175.987 47.9153C175.46 48.1563 174.894 48.3403 174.291 48.4672C173.7 48.6067 173.041 48.6765 172.312 48.6765C171.57 48.6765 170.873 48.575 170.22 48.372C169.566 48.1563 168.994 47.8392 168.504 47.4206C168.027 47.0019 167.644 46.4755 167.355 45.8412C167.078 45.1942 166.94 44.433 166.94 43.5577C166.94 42.7966 167.147 42.0671 167.562 41.3694C167.977 40.659 168.649 40.031 169.579 39.4856C170.509 38.9401 171.721 38.4961 173.217 38.1535C174.712 37.7983 176.546 37.5954 178.72 37.5446V36.0413C178.72 34.5444 178.4 33.4154 177.759 32.6542C177.118 31.8804 176.182 31.4935 174.951 31.4935C174.121 31.4935 173.424 31.6013 172.858 31.8169C172.306 32.0199 171.822 32.2546 171.407 32.521C171.005 32.7747 170.653 33.0094 170.352 33.2251C170.063 33.4281 169.774 33.5295 169.485 33.5295C169.258 33.5295 169.064 33.4725 168.9 33.3583C168.737 33.2314 168.599 33.0792 168.486 32.9016L167.882 31.8169Z" fill="#0B6186"/>
<path d="M160.724 48.6765C159.216 48.6765 158.054 48.2515 157.237 47.4015C156.433 46.5516 156.031 45.3274 156.031 43.729V31.9311H153.731C153.53 31.9311 153.36 31.874 153.222 31.7598C153.084 31.633 153.015 31.4427 153.015 31.189V29.8379L156.144 29.4383L156.916 23.4823C156.954 23.292 157.036 23.1398 157.161 23.0256C157.3 22.8988 157.476 22.8353 157.689 22.8353H159.386V29.4764H164.908V31.9311H159.386V43.5006C159.386 44.3125 159.58 44.9151 159.97 45.3084C160.359 45.7016 160.862 45.8982 161.478 45.8982C161.83 45.8982 162.131 45.8538 162.382 45.765C162.646 45.6636 162.873 45.5557 163.061 45.4416C163.25 45.3274 163.407 45.2259 163.532 45.1371C163.67 45.0356 163.79 44.9849 163.89 44.9849C164.066 44.9849 164.223 45.0927 164.362 45.3084L165.342 46.9258C164.764 47.4713 164.066 47.9026 163.249 48.2198C162.433 48.5242 161.591 48.6765 160.724 48.6765Z" fill="#0B6186"/>
<path d="M149.674 32.2736C149.523 32.5527 149.291 32.6922 148.977 32.6922C148.788 32.6922 148.575 32.6225 148.336 32.4829C148.097 32.3434 147.802 32.1912 147.45 32.0262C147.111 31.8486 146.702 31.6901 146.225 31.5505C145.747 31.3983 145.182 31.3222 144.528 31.3222C143.963 31.3222 143.454 31.3983 143.002 31.5505C142.549 31.6901 142.16 31.8867 141.833 32.1404C141.519 32.3941 141.274 32.6923 141.098 33.0348C140.935 33.3646 140.853 33.7261 140.853 34.1194C140.853 34.6142 140.991 35.0265 141.268 35.3563C141.557 35.6861 141.934 35.9715 142.399 36.2126C142.864 36.4536 143.391 36.6693 143.982 36.8596C144.572 37.0372 145.176 37.2338 145.791 37.4495C146.42 37.6524 147.029 37.8808 147.62 38.1345C148.21 38.3882 148.738 38.7054 149.203 39.0859C149.668 39.4665 150.039 39.9359 150.315 40.4941C150.604 41.0396 150.749 41.6992 150.749 42.4731C150.749 43.3611 150.591 44.1856 150.277 44.9468C149.963 45.6953 149.498 46.3486 148.882 46.9068C148.267 47.4523 147.513 47.8836 146.621 48.2007C145.729 48.5179 144.698 48.6764 143.53 48.6764C142.198 48.6764 140.991 48.4608 139.911 48.0295C138.83 47.5855 137.913 47.0209 137.159 46.3359L137.95 45.0419C138.051 44.877 138.17 44.7502 138.308 44.6614C138.447 44.5726 138.623 44.5282 138.836 44.5282C139.062 44.5282 139.301 44.617 139.552 44.7946C139.804 44.9722 140.105 45.1688 140.457 45.3845C140.822 45.6001 141.261 45.7968 141.777 45.9744C142.292 46.152 142.933 46.2408 143.699 46.2408C144.353 46.2408 144.924 46.1583 145.414 45.9934C145.904 45.8158 146.313 45.5811 146.64 45.2893C146.966 44.9975 147.205 44.6614 147.356 44.2808C147.519 43.9002 147.601 43.4943 147.601 43.0629C147.601 42.5301 147.456 42.0925 147.167 41.75C146.891 41.3948 146.52 41.0966 146.055 40.8556C145.59 40.6019 145.056 40.3862 144.453 40.2086C143.862 40.0183 143.253 39.8217 142.625 39.6187C142.009 39.4158 141.4 39.1874 140.796 38.9337C140.206 38.6673 139.678 38.3375 139.213 37.9442C138.748 37.5509 138.371 37.0689 138.082 36.498C137.806 35.9145 137.668 35.2104 137.668 34.3858C137.668 33.65 137.818 32.946 138.12 32.2736C138.422 31.5886 138.861 30.9923 139.439 30.4849C140.017 29.9648 140.727 29.5525 141.569 29.248C142.411 28.9436 143.372 28.7913 144.453 28.7913C145.71 28.7913 146.834 28.9943 147.827 29.4003C148.832 29.7935 149.699 30.339 150.428 31.0367L149.674 32.2736Z" fill="#0B6186"/>
<path d="M133.041 29.0958V48.372H129.686V29.0958H133.041ZM133.757 23.0446C133.757 23.3745 133.688 23.6853 133.55 23.9771C133.424 24.2561 133.248 24.5099 133.022 24.7382C132.808 24.9539 132.551 25.1251 132.249 25.252C131.96 25.3788 131.652 25.4423 131.326 25.4423C130.999 25.4423 130.691 25.3788 130.402 25.252C130.126 25.1251 129.881 24.9539 129.667 24.7382C129.453 24.5099 129.284 24.2561 129.158 23.9771C129.032 23.6853 128.97 23.3745 128.97 23.0446C128.97 22.7148 129.032 22.404 129.158 22.1122C129.284 21.8078 129.453 21.5477 129.667 21.332C129.881 21.1037 130.126 20.9261 130.402 20.7992C130.691 20.6724 130.999 20.609 131.326 20.609C131.652 20.609 131.96 20.6724 132.249 20.7992C132.551 20.9261 132.808 21.1037 133.022 21.332C133.248 21.5477 133.424 21.8078 133.55 22.1122C133.688 22.404 133.757 22.7148 133.757 23.0446Z" fill="#0B6186"/>
<path d="M126.736 21.1037L115.728 48.372H112.449L101.441 21.1037H104.363C104.689 21.1037 104.953 21.1862 105.154 21.3511C105.355 21.516 105.506 21.7253 105.607 21.979L113.221 41.2172C113.385 41.6485 113.542 42.1179 113.693 42.6253C113.856 43.1327 114 43.6655 114.126 44.2237C114.252 43.6655 114.384 43.1327 114.522 42.6253C114.66 42.1179 114.811 41.6485 114.974 41.2172L122.57 21.979C122.646 21.7634 122.79 21.5668 123.004 21.3891C123.23 21.1989 123.5 21.1037 123.814 21.1037H126.736Z" fill="#0B6186"/>
<path d="M95.9399 48.6764C95.0603 48.6764 94.2812 48.5496 93.6026 48.2958C92.9241 48.0294 92.3524 47.6552 91.8874 47.1731C91.4225 46.6911 91.0707 46.1075 90.8319 45.4225C90.5932 44.7375 90.4738 43.9636 90.4738 43.101V32.521H88.6455C88.369 32.521 88.1303 32.4322 87.9292 32.2546C87.7407 32.077 87.6465 31.8106 87.6465 31.4554V29.4002L90.7565 28.8294L91.812 23.7487C91.9503 23.1778 92.3335 22.8924 92.9618 22.8924H95.676V28.8674H100.69V32.521H95.676V42.7585C95.676 43.304 95.8016 43.7353 96.053 44.0524C96.3168 44.3696 96.6875 44.5281 97.165 44.5281C97.4163 44.5281 97.63 44.5028 97.8059 44.452C97.9818 44.3886 98.1326 44.3252 98.2582 44.2617C98.3839 44.1856 98.497 44.1222 98.5975 44.0715C98.7106 44.008 98.8237 43.9763 98.9368 43.9763C99.0876 43.9763 99.2132 44.0144 99.3138 44.0905C99.4143 44.1539 99.5148 44.2681 99.6153 44.433L101.18 46.9448C100.464 47.5157 99.653 47.947 98.7483 48.2388C97.8436 48.5305 96.9074 48.6764 95.9399 48.6764Z" fill="#0B6186"/>
<path d="M84.8982 20V48.372H79.696V20H84.8982Z" fill="#0B6186"/>
<path d="M59.1419 20.7612L48.1344 48.372H43.0076L32 20.7612H36.5613C37.0514 20.7612 37.4472 20.8817 37.7488 21.1227C38.063 21.3511 38.2954 21.6492 38.4462 22.0171L44.3646 37.9252C44.5908 38.5214 44.8107 39.1747 45.0243 39.8851C45.2505 40.5828 45.4579 41.3186 45.6464 42.0925C45.8097 41.3186 45.9856 40.5828 46.1741 39.8851C46.3752 39.1747 46.5888 38.5214 46.815 37.9252L52.6957 22.0171C52.8214 21.6999 53.0413 21.4145 53.3554 21.1608C53.6821 20.8944 54.0842 20.7612 54.5617 20.7612H59.1419Z" fill="#0B6186"/>
<path d="M69.6195 28.8165C68.7039 28.5714 67.7194 28.4488 66.666 28.4488C65.1958 28.4488 63.8576 28.6835 62.6513 29.1528C61.4575 29.6223 60.4334 30.2946 59.5789 31.1699C58.7245 32.0325 58.0585 33.0855 57.581 34.3287C57.1161 35.5719 56.8836 36.9737 56.8836 38.534C56.8836 40.0944 57.1161 41.5026 57.581 42.7584C58.0585 44.0017 58.7245 45.061 59.5789 45.9362C60.3028 46.6778 61.1484 47.2737 62.1158 47.7239L63.9475 40.0515C64.021 39.7435 63.9424 39.5977 63.6921 39.5368L60.8315 38.8407C60.5168 38.7641 60.4496 38.364 60.7112 38.0926L69.6195 28.8165Z" fill="#0B6186"/>
<path d="M64.0771 48.3853L72.064 40.5646C72.3326 40.2951 72.2819 39.8165 71.9672 39.74L69.4642 39.1309C69.1066 39.0439 68.8512 38.5291 68.9533 38.1013L71.0491 29.3233C72.0706 29.78 72.9594 30.3955 73.7154 31.1699C74.5698 32.0325 75.2295 33.0855 75.6945 34.3287C76.1594 35.5719 76.3918 36.9737 76.3918 38.534C76.3918 40.0944 76.1594 41.5026 75.6945 42.7584C75.2295 44.0017 74.5698 45.061 73.7154 45.9362C72.8609 46.8116 71.8368 47.4839 70.643 47.9534C69.4493 48.4227 68.1236 48.6574 66.666 48.6574C65.752 48.6574 64.889 48.5667 64.0771 48.3853Z" fill="#0B6186"/>
</svg>
