<svg width="22" height="21" viewBox="0 0 22 21" fill="none" xmlns="http://www.w3.org/2000/svg">
<path d="M20.6733 18.2298C20.0305 17.6567 19.4676 16.9997 19 16.2765C18.4895 15.2782 18.1835 14.1879 18.1 13.0698V9.77646C18.1044 8.0202 17.4673 6.32277 16.3085 5.0031C15.1496 3.68343 13.5488 2.83236 11.8067 2.60979V1.74979C11.8067 1.51374 11.7129 1.28737 11.546 1.12046C11.3791 0.953555 11.1527 0.859787 10.9167 0.859787C10.6806 0.859787 10.4542 0.953555 10.2873 1.12046C10.1204 1.28737 10.0267 1.51374 10.0267 1.74979V2.62312C8.30016 2.86174 6.71864 3.71796 5.57501 5.03319C4.43138 6.34843 3.80315 8.03355 3.80666 9.77646V13.0698C3.72316 14.1879 3.41718 15.2782 2.90666 16.2765C2.44725 16.998 1.89346 17.655 1.25999 18.2298C1.18888 18.2923 1.13189 18.3692 1.0928 18.4554C1.05372 18.5416 1.03345 18.6351 1.03333 18.7298V19.6365C1.03333 19.8133 1.10356 19.9828 1.22859 20.1079C1.35361 20.2329 1.52318 20.3031 1.69999 20.3031H20.2333C20.4101 20.3031 20.5797 20.2329 20.7047 20.1079C20.8298 19.9828 20.9 19.8133 20.9 19.6365V18.7298C20.8999 18.6351 20.8796 18.5416 20.8405 18.4554C20.8014 18.3692 20.7444 18.2923 20.6733 18.2298ZM2.41999 18.9698C3.04026 18.3706 3.58639 17.6991 4.04666 16.9698C4.68973 15.7641 5.06495 14.4338 5.14666 13.0698V9.77646C5.12022 8.99515 5.25127 8.21651 5.53202 7.4869C5.81277 6.75729 6.23747 6.09164 6.78082 5.52959C7.32418 4.96753 7.97509 4.52057 8.69478 4.2153C9.41447 3.91004 10.1882 3.75273 10.97 3.75273C11.7517 3.75273 12.5255 3.91004 13.2452 4.2153C13.9649 4.52057 14.6158 4.96753 15.1592 5.52959C15.7025 6.09164 16.1272 6.75729 16.408 7.4869C16.6887 8.21651 16.8198 8.99515 16.7933 9.77646V13.0698C16.875 14.4338 17.2502 15.7641 17.8933 16.9698C18.3536 17.6991 18.8997 18.3706 19.52 18.9698H2.41999Z" fill="#0B6186" stroke="#0B6186" stroke-width="0.5"/>
</svg>
