<svg width="40" height="40" viewBox="0 0 40 40" fill="none" xmlns="http://www.w3.org/2000/svg">
<g clip-path="url(#clip0_617_236)">
<path d="M16.6666 8.33333C16.6666 7.44928 17.0178 6.60143 17.6429 5.97631C18.2681 5.35119 19.1159 5 20 5C20.884 5 21.7319 5.35119 22.357 5.97631C22.9821 6.60143 23.3333 7.44928 23.3333 8.33333C25.2473 9.23838 26.879 10.6472 28.0534 12.4088C29.2278 14.1705 29.9007 16.2185 30 18.3333V23.3333C30.1254 24.3695 30.4923 25.3618 31.0713 26.2302C31.6503 27.0987 32.4251 27.819 33.3333 28.3333H6.66663C7.57486 27.819 8.34964 27.0987 8.9286 26.2302C9.50757 25.3618 9.87453 24.3695 9.99996 23.3333V18.3333C10.0992 16.2185 10.7721 14.1705 11.9465 12.4088C13.121 10.6472 14.7526 9.23838 16.6666 8.33333" stroke="#0B6186" stroke-width="1.5" stroke-linecap="round" stroke-linejoin="round"/>
<path d="M15 28.3333V30C15 31.3261 15.5268 32.5979 16.4645 33.5355C17.4021 34.4732 18.6739 35 20 35C21.3261 35 22.5979 34.4732 23.5355 33.5355C24.4732 32.5979 25 31.3261 25 30V28.3333" stroke="#0B6186" stroke-width="1.5" stroke-linecap="round" stroke-linejoin="round"/>
</g>
<defs>
<clipPath id="clip0_617_236">
<rect width="40" height="40" fill="white"/>
</clipPath>
</defs>
</svg>
