<svg width="18" height="19" viewBox="0 0 18 19" fill="none" xmlns="http://www.w3.org/2000/svg">
<path d="M1.00006 15.6765C1.00006 14.6156 1.42149 13.5982 2.17163 12.848C2.92178 12.0979 3.9392 11.6765 5.00006 11.6765H13.0001C14.0609 11.6765 15.0783 12.0979 15.8285 12.848C16.5786 13.5982 17.0001 14.6156 17.0001 15.6765C17.0001 16.2069 16.7893 16.7156 16.4143 17.0907C16.0392 17.4657 15.5305 17.6765 15.0001 17.6765H3.00006C2.46963 17.6765 1.96092 17.4657 1.58585 17.0907C1.21077 16.7156 1.00006 16.2069 1.00006 15.6765Z" stroke="#0B6186" stroke-width="1.83119" stroke-linejoin="round"/>
<path d="M9.00002 7.67645C10.6569 7.67645 12 6.33331 12 4.67645C12 3.0196 10.6569 1.67645 9.00002 1.67645C7.34316 1.67645 6.00002 3.0196 6.00002 4.67645C6.00002 6.33331 7.34316 7.67645 9.00002 7.67645Z" stroke="#0B6186" stroke-width="1.83119"/>
</svg>
