<svg width="24" height="25" viewBox="0 0 24 25" fill="none" xmlns="http://www.w3.org/2000/svg">
<path d="M19.615 13.6764C19.6586 13.3448 19.6819 13.0109 19.685 12.6764C19.6819 12.342 19.6586 12.008 19.615 11.6764L21.78 9.98144C21.8778 9.90676 21.9446 9.79866 21.9676 9.67782C21.9907 9.55698 21.9684 9.43187 21.905 9.32644L19.855 5.77144C19.7956 5.66481 19.6993 5.58358 19.5842 5.54305C19.4691 5.50253 19.3431 5.50551 19.23 5.55144L16.675 6.58144C16.1434 6.17568 15.562 5.83962 14.945 5.58144L14.56 2.86644C14.543 2.7463 14.4829 2.63644 14.391 2.55732C14.299 2.47821 14.1813 2.43525 14.06 2.43644H9.95001C9.82868 2.43525 9.71106 2.47821 9.61907 2.55732C9.52708 2.63644 9.46699 2.7463 9.45001 2.86644L9.06501 5.58144C8.44726 5.83801 7.86567 6.17419 7.33501 6.58144L4.77001 5.55144C4.65693 5.50551 4.53096 5.50253 4.41584 5.54305C4.30071 5.58358 4.20439 5.66481 4.14501 5.77144L2.09501 9.32644C2.03162 9.43187 2.00932 9.55698 2.03238 9.67782C2.05544 9.79866 2.12224 9.90676 2.22001 9.98144L4.38001 11.6764C4.33662 12.0081 4.31325 12.342 4.31001 12.6764C4.31308 13.0109 4.33645 13.3448 4.38001 13.6764L2.22001 15.3714C2.12224 15.4461 2.05544 15.5542 2.03238 15.6751C2.00932 15.7959 2.03162 15.921 2.09501 16.0264L4.14501 19.5814C4.20439 19.6881 4.30071 19.7693 4.41584 19.8098C4.53096 19.8504 4.65693 19.8474 4.77001 19.8014L7.32501 18.7714C7.85666 19.1772 8.43805 19.5133 9.05501 19.7714L9.44001 22.4864C9.45699 22.6066 9.51708 22.7164 9.60907 22.7956C9.70106 22.8747 9.81868 22.9176 9.94001 22.9164H14.04C14.1613 22.9176 14.279 22.8747 14.371 22.7956C14.4629 22.7164 14.523 22.6066 14.54 22.4864L14.925 19.7714C15.5428 19.5149 16.1244 19.1787 16.655 18.7714L19.21 19.8014C19.3231 19.8474 19.4491 19.8504 19.5642 19.8098C19.6793 19.7693 19.7756 19.6881 19.835 19.5814L21.885 16.0264C21.9484 15.921 21.9707 15.7959 21.9476 15.6751C21.9246 15.5542 21.8578 15.4461 21.76 15.3714L19.615 13.6764ZM12 16.2664C11.2898 16.2674 10.5952 16.0577 10.0042 15.6638C9.41312 15.27 8.95221 14.7096 8.67972 14.0537C8.40723 13.3978 8.33543 12.6759 8.47338 11.9791C8.61134 11.2824 8.95286 10.6423 9.45473 10.1397C9.9566 9.63713 10.5963 9.29472 11.2928 9.15579C11.9893 9.01687 12.7114 9.08767 13.3677 9.35924C14.024 9.63081 14.5849 10.0909 14.9796 10.6814C15.3743 11.2719 15.585 11.9662 15.585 12.6764C15.5857 13.1477 15.4934 13.6144 15.3136 14.0499C15.1337 14.4854 14.8697 14.8812 14.5368 15.2147C14.2038 15.5481 13.8084 15.8126 13.3731 15.9931C12.9378 16.1735 12.4712 16.2664 12 16.2664Z" stroke="#0B6186" stroke-width="1.4" stroke-linecap="round" stroke-linejoin="round"/>
</svg>
