<svg width="24" height="25" viewBox="0 0 24 25" fill="none" xmlns="http://www.w3.org/2000/svg">
<g clip-path="url(#clip0_310_520)">
<path d="M15.6914 14.1765H13.5C12.8516 13.6843 12.1445 13.3132 11.3789 13.0632C10.6133 12.8132 9.82031 12.6843 9 12.6765C8.3125 12.6765 7.64844 12.7663 7.00781 12.946C6.36719 13.1257 5.76953 13.3757 5.21484 13.696C4.66016 14.0163 4.15625 14.4069 3.70312 14.8679C3.25 15.3288 2.85938 15.8366 2.53125 16.3913C2.20312 16.946 1.94922 17.5436 1.76953 18.1843C1.58984 18.8249 1.5 19.489 1.5 20.1765H0C0 19.239 0.136719 18.3366 0.410156 17.4694C0.683594 16.6022 1.07812 15.8015 1.59375 15.0671C2.10938 14.3327 2.71875 13.6804 3.42188 13.11C4.125 12.5397 4.92188 12.0905 5.8125 11.7624C5.375 11.489 4.98438 11.1686 4.64062 10.8015C4.29688 10.4343 4 10.028 3.75 9.5827C3.5 9.13739 3.31641 8.67255 3.19922 8.18817C3.08203 7.7038 3.01562 7.19989 3 6.67645C3 5.84833 3.15625 5.07098 3.46875 4.34442C3.78125 3.61786 4.21094 2.98505 4.75781 2.44598C5.30469 1.90692 5.94141 1.47723 6.66797 1.15692C7.39453 0.836609 8.17188 0.676453 9 0.676453C9.82812 0.676453 10.6055 0.832703 11.332 1.1452C12.0586 1.4577 12.6914 1.88739 13.2305 2.43427C13.7695 2.98114 14.1992 3.61786 14.5195 4.34442C14.8398 5.07098 15 5.84833 15 6.67645C15 7.19208 14.9375 7.69598 14.8125 8.18817C14.6875 8.68036 14.5 9.1452 14.25 9.5827C14 10.0202 13.707 10.4225 13.3711 10.7897C13.0352 11.1569 12.6406 11.4811 12.1875 11.7624C12.8594 12.0124 13.4922 12.3405 14.0859 12.7468C14.6797 13.153 15.2148 13.6296 15.6914 14.1765ZM4.5 6.67645C4.5 7.30145 4.61719 7.88348 4.85156 8.42255C5.08594 8.96161 5.40625 9.43817 5.8125 9.85223C6.21875 10.2663 6.69531 10.5905 7.24219 10.8249C7.78906 11.0593 8.375 11.1765 9 11.1765C9.61719 11.1765 10.1992 11.0593 10.7461 10.8249C11.293 10.5905 11.7695 10.2702 12.1758 9.86395C12.582 9.4577 12.9062 8.98114 13.1484 8.43427C13.3906 7.88739 13.5078 7.30145 13.5 6.67645C13.5 6.05927 13.3828 5.47723 13.1484 4.93036C12.9141 4.38348 12.5938 3.90692 12.1875 3.50067C11.7812 3.09442 11.3008 2.7702 10.7461 2.52802C10.1914 2.28583 9.60938 2.16864 9 2.17645C8.375 2.17645 7.79297 2.29364 7.25391 2.52802C6.71484 2.76239 6.23828 3.0827 5.82422 3.48895C5.41016 3.8952 5.08594 4.37567 4.85156 4.93036C4.61719 5.48505 4.5 6.06708 4.5 6.67645ZM13.5 15.6765H19.9922L18.9961 14.6804L20.0039 13.6725L22.7695 16.4265L20.0039 19.1804L18.9961 18.1725L19.9922 17.1765H13.5V15.6765ZM17.0039 19.1804L16.0078 20.1765H22.5V21.6765H16.0078L17.0039 22.6725L15.9961 23.6804L13.2305 20.9265L15.9961 18.1725L17.0039 19.1804Z" fill="#0B6186" stroke="#0B6186" stroke-width="0.5"/>
</g>
<defs>
<clipPath id="clip0_310_520">
<rect width="24" height="24" fill="white" transform="translate(0 0.676453)"/>
</clipPath>
</defs>
</svg>
