<svg width="20" height="20" viewBox="0 0 20 20" fill="none" xmlns="http://www.w3.org/2000/svg">
<path d="M9.99998 3.33325C10.884 3.33325 11.7319 3.68444 12.357 4.30956C12.9821 4.93468 13.3333 5.78253 13.3333 6.66659C13.3333 7.55064 12.9821 8.39849 12.357 9.02361C11.7319 9.64873 10.884 9.99992 9.99998 9.99992C9.11592 9.99992 8.26808 9.64873 7.64296 9.02361C7.01784 8.39849 6.66665 7.55064 6.66665 6.66659C6.66665 5.78253 7.01784 4.93468 7.64296 4.30956C8.26808 3.68444 9.11592 3.33325 9.99998 3.33325ZM9.99998 11.6666C13.6833 11.6666 16.6666 13.1583 16.6666 14.9999V16.6666H3.33331V14.9999C3.33331 13.1583 6.31665 11.6666 9.99998 11.6666Z" fill="#0B6186"/>
</svg>
