<svg width="20" height="20" viewBox="0 0 20 20" fill="none" xmlns="http://www.w3.org/2000/svg">
<path d="M14.1666 7.50008V5.83341C14.1666 3.50008 12.3333 1.66675 9.99998 1.66675C7.66665 1.66675 5.83331 3.50008 5.83331 5.83341V7.50008C4.41665 7.50008 3.33331 8.58341 3.33331 10.0001V15.8334C3.33331 17.2501 4.41665 18.3334 5.83331 18.3334H14.1666C15.5833 18.3334 16.6666 17.2501 16.6666 15.8334V10.0001C16.6666 8.58341 15.5833 7.50008 14.1666 7.50008ZM7.49998 5.83341C7.49998 4.41675 8.58331 3.33341 9.99998 3.33341C11.4166 3.33341 12.5 4.41675 12.5 5.83341V7.50008H7.49998V5.83341ZM10.9166 12.9167L10.8333 13.0001V14.1667C10.8333 14.6667 10.5 15.0001 9.99998 15.0001C9.49998 15.0001 9.16665 14.6667 9.16665 14.1667V13.0001C8.66665 12.5001 8.58331 11.7501 9.08331 11.2501C9.58331 10.7501 10.3333 10.6667 10.8333 11.1667C11.3333 11.5834 11.4166 12.4167 10.9166 12.9167Z" fill="#0B6186"/>
</svg>
